{
	"patcher" : 	{
		"fileversion" : 1,
		"appversion" : 		{
			"major" : 8,
			"minor" : 2,
			"revision" : 2,
			"architecture" : "x64",
			"modernui" : 1
		}
,
		"classnamespace" : "dsp.gen",
		"rect" : [ 113.0, 190.0, 881.0, 450.0 ],
		"bglocked" : 0,
		"openinpresentation" : 0,
		"default_fontsize" : 12.0,
		"default_fontface" : 0,
		"default_fontname" : "Arial",
		"gridonopen" : 1,
		"gridsize" : [ 15.0, 15.0 ],
		"gridsnaponopen" : 1,
		"objectsnaponopen" : 1,
		"statusbarvisible" : 2,
		"toolbarvisible" : 1,
		"lefttoolbarpinned" : 0,
		"toptoolbarpinned" : 0,
		"righttoolbarpinned" : 0,
		"bottomtoolbarpinned" : 0,
		"toolbars_unpinned_last_save" : 0,
		"tallnewobj" : 0,
		"boxanimatetime" : 200,
		"enablehscroll" : 1,
		"enablevscroll" : 1,
		"devicewidth" : 0.0,
		"description" : "",
		"digest" : "",
		"tags" : "",
		"style" : "",
		"subpatcher_template" : "",
		"assistshowspatchername" : 0,
		"boxes" : [ 			{
				"box" : 				{
					"id" : "obj-7",
					"maxclass" : "newobj",
					"numinlets" : 1,
					"numoutlets" : 0,
					"patching_rect" : [ 482.0, 413.0, 65.0, 22.0 ],
					"text" : "out 3 state"
				}

			}
, 			{
				"box" : 				{
					"id" : "obj-6",
					"maxclass" : "newobj",
					"numinlets" : 0,
					"numoutlets" : 1,
					"outlettype" : [ "" ],
					"patching_rect" : [ 669.0, 14.0, 95.0, 22.0 ],
					"text" : "in 3 state(on/off)"
				}

			}
, 			{
				"box" : 				{
					"id" : "obj-5",
					"maxclass" : "newobj",
					"numinlets" : 1,
					"numoutlets" : 0,
					"patching_rect" : [ 305.0, 413.0, 79.0, 22.0 ],
					"text" : "out 2 velocity"
				}

			}
, 			{
				"box" : 				{
					"id" : "obj-1",
					"maxclass" : "newobj",
					"numinlets" : 0,
					"numoutlets" : 1,
					"outlettype" : [ "" ],
					"patching_rect" : [ 50.0, 14.0, 55.0, 22.0 ],
					"text" : "in 1 note"
				}

			}
, 			{
				"box" : 				{
					"id" : "obj-2",
					"maxclass" : "newobj",
					"numinlets" : 0,
					"numoutlets" : 1,
					"outlettype" : [ "" ],
					"patching_rect" : [ 359.5, 14.0, 71.0, 22.0 ],
					"text" : "in 2 velocity"
				}

			}
, 			{
				"box" : 				{
					"code" : "Data historicNotes(128, 1);\r\nData futureNotes(128, 1);\r\n\r\nHistory noteHist(-1);\r\nHistory noteOut(0);\r\nHistory velOut(0);\r\nHistory stateOut(0);\r\n\r\nHistory start(1);\r\nif ( start )\r\n{\r\n\tfor ( c = 0; c < 16; c = c + 1)\r\n\t{\r\n\t\tfor ( i = 0; i < 128; i = i + 1)\r\n\t\t{\r\n\t\t\thistoricNotes.poke(-1, i);\r\n\t\t\tfutureNotes.poke(-1, i);\r\n\t\t}\r\n\t}\r\n\tstart = 0;\r\n}\r\n\r\nnoteIn = clip(in1, 0, 127);\r\nvelIn = clip(in2, 0, 127);\r\nstateIn = in3;\r\n\r\nif ( stateIn > 0 )// Note ON\r\n{\r\n\thistoricNotes.poke(noteHist, noteIn);\r\n\tfutureNotes.poke(noteIn, noteHist);\r\n\t\r\n\tnoteHist = noteIn;\r\n\tnoteOut = noteIn;\r\n\tvelOut = velIn;\r\n\tstateOut = 1;\r\n}\r\nelse // Note OFF\r\n{\r\n\tif ( noteIn == noteHist )// Note OFF which was ON as the previous note.\r\n\t{\r\n\t\tnoteHist = historicNotes.peek(noteIn);\r\n\t\tif ( noteHist > -1 ) // There is a next note.\r\n\t\t{\r\n\t\t\tnoteOut = noteHist;\r\n\t\t\t\r\n\t\t\tif ( velIn > 0 )\r\n\t\t\t{\r\n\t\t\t\tvelOut = velIn;\r\n\t\t\t}\r\n\t\t\telse if ( velOut > 63 ) \r\n\t\t\t{\r\n\t\t\t\tvelOut = 63;\r\n\t\t\t}\r\n\t\t}\r\n\t\telse\r\n\t\t{\r\n\t\t\tvelOut = velIn; // No next note.\r\n\t\t\tstateOut = 0;\r\n\t\t}\r\n\t}\r\n\telse// Note OFF which was ON but not the last note.\r\n\t{\r\n\t\tfutureNote = futureNotes.peek(noteIn);\r\n\t\thistoricNote = historicNotes.peek(noteIn);\r\n\t\thistoricNotes.poke(historicNote, futureNote);\r\n\t\tfutureNotes.poke(futureNote, historicNote);\r\n\t}\r\n\t\r\n\thistoricNotes.poke(-1, noteIn);\r\n}\r\n\r\nout1 = noteOut;\r\nout2 = velOut;\r\nout3 = stateOut;",
					"fontface" : 0,
					"fontname" : "<Monospaced>",
					"fontsize" : 12.0,
					"id" : "obj-3",
					"maxclass" : "codebox",
					"numinlets" : 3,
					"numoutlets" : 3,
					"outlettype" : [ "", "", "" ],
					"patching_rect" : [ 50.0, 52.0, 638.0, 336.0 ]
				}

			}
, 			{
				"box" : 				{
					"id" : "obj-4",
					"maxclass" : "newobj",
					"numinlets" : 1,
					"numoutlets" : 0,
					"patching_rect" : [ 50.0, 413.0, 62.0, 22.0 ],
					"text" : "out 1 note"
				}

			}
 ],
		"lines" : [ 			{
				"patchline" : 				{
					"destination" : [ "obj-3", 0 ],
					"source" : [ "obj-1", 0 ]
				}

			}
, 			{
				"patchline" : 				{
					"destination" : [ "obj-3", 1 ],
					"source" : [ "obj-2", 0 ]
				}

			}
, 			{
				"patchline" : 				{
					"destination" : [ "obj-4", 0 ],
					"source" : [ "obj-3", 0 ]
				}

			}
, 			{
				"patchline" : 				{
					"destination" : [ "obj-5", 0 ],
					"source" : [ "obj-3", 1 ]
				}

			}
, 			{
				"patchline" : 				{
					"destination" : [ "obj-7", 0 ],
					"source" : [ "obj-3", 2 ]
				}

			}
, 			{
				"patchline" : 				{
					"destination" : [ "obj-3", 2 ],
					"source" : [ "obj-6", 0 ]
				}

			}
 ],
		"autosave" : 0
	}

}
